<svg width="163" height="40" viewBox="0 0 163 40" fill="none" xmlns="http://www.w3.org/2000/svg">
<path d="M7.36864 15.4324C7.01607 15.3622 6.80453 15.0811 6.80453 14.7649V8.93243C6.76928 8.65135 6.69876 8.47568 6.52248 8.37027C6.3462 8.22973 6.02889 8.26486 5.71158 8.40541C5.71158 8.40541 5.71158 8.40541 5.67632 8.40541L5.39427 8.58108C5.35901 8.58108 5.35901 8.58108 5.32375 8.58108C5.2885 8.58108 5.25324 8.54594 5.21798 8.51081C5.18273 8.44054 5.21798 8.37027 5.2885 8.37027L6.80453 7.5973H6.83979L9.8366 6.12162L9.90712 6.08649C9.90712 6.08649 9.90712 6.08649 9.94237 6.08649H9.97763C10.0129 6.08649 10.0129 6.08649 10.0129 6.08649C10.0129 6.08649 10.0129 6.12162 10.0481 6.12162V6.15676C10.0481 6.15676 10.0834 6.15676 10.0834 6.19189V15.2216C10.0834 15.2568 10.0481 15.327 9.97763 15.327C9.48404 15.4324 8.95519 15.5027 8.42634 15.5027C8.07377 15.5027 7.7212 15.4676 7.36864 15.4324ZM26.7598 31.0324C26.8303 31.1027 26.8303 31.173 26.7598 31.2081C26.1957 31.7351 25.4553 32.0162 24.7502 32.0162C23.9745 32.0162 23.2341 31.7351 22.67 31.173C22.1412 30.6459 21.8239 29.9432 21.7886 29.1703L21.5418 29.4162L19.779 31.0324C19.0386 31.6649 18.0867 32.0162 17.0995 32.0162C14.7725 32.0162 12.8687 30.0486 12.8687 27.6243C12.8687 25.8676 13.8559 24.2865 15.3719 23.5838L21.7886 20.6324V18.8757C21.7886 16.5568 20.6251 14.6946 19.1796 14.6946C18.4745 14.6946 17.7693 14.8 17.1347 15.0108L16.2181 15.2919C14.9841 15.7486 14.1732 16.9432 14.1732 18.2784C14.1732 20.0351 15.5834 21.4757 17.3815 21.4757C17.5931 21.4757 17.8399 21.4405 18.0514 21.4054C18.7213 21.2297 19.0033 20.9135 19.0033 20.7378C18.9681 20.6324 18.7918 20.527 18.545 20.527C17.2758 20.527 16.2533 19.5081 16.2533 18.2784C16.2533 17.0135 17.2758 15.9946 18.545 15.9946C19.779 15.9946 20.8014 17.0135 20.8014 18.2784C20.8014 18.3135 20.8014 18.3486 20.8014 18.3838C20.8014 18.4189 20.8014 18.4189 20.8014 18.4189C20.7662 19.9649 19.638 21.3 18.1219 21.6162H18.0867C17.8751 21.6865 17.6283 21.7216 17.3815 21.7216C15.4777 21.7216 13.9264 20.1757 13.9264 18.2784C13.9264 17.2243 14.42 16.2405 15.1956 15.6081L11.0353 16.9432C10.718 17.0486 10.4007 17.1189 10.0834 17.1892V29.8027C10.0834 30.6108 10.718 31.2784 11.5289 31.2784C11.5994 31.2784 11.6347 31.3135 11.6347 31.3838C11.6347 31.4541 11.5994 31.5243 11.5289 31.5243H5.32375C5.25324 31.5243 5.21798 31.4541 5.21798 31.3838C5.21798 31.3135 5.25324 31.2784 5.32375 31.2784C6.13466 31.2784 6.76928 30.6108 6.80453 29.8378V17.1892C2.85579 16.4162 0 12.9378 0 8.93243C0 4.29459 3.77246 0.5 8.42634 0.5C11.0706 0.5 13.5386 1.69459 15.1251 3.8027C16.2886 5.27838 16.8879 7.07027 16.8879 8.93243C16.8879 10.1622 15.8655 11.1811 14.5962 11.1811C13.327 11.1811 12.3046 10.1622 12.3046 8.93243C12.3046 7.66757 13.327 6.64865 14.5962 6.64865C15.1956 6.64865 15.5834 6.50811 15.7245 6.22703C15.9713 5.77027 15.6892 4.9973 14.9488 3.94324C13.3623 1.9054 11.0001 0.745945 8.42634 0.745945C3.91349 0.745945 0.21154 4.4 0.21154 8.93243C0.21154 12.8676 3.03207 16.2405 6.94556 16.9784C7.93274 17.1541 8.95519 17.1541 9.94237 16.9784C10.2949 16.9081 10.6122 16.8027 10.9648 16.6973L17.029 14.7649C17.0642 14.7649 17.0642 14.7649 17.0642 14.7649C17.7341 14.5541 18.4392 14.4486 19.1796 14.4486C22.4232 14.4486 25.0322 16.6622 25.0322 19.4027V30.3297C25.0322 30.5757 25.138 30.8216 25.3143 30.9973C25.6668 31.3486 26.2309 31.3838 26.6188 31.0324C26.654 30.9973 26.7245 30.9973 26.7598 31.0324ZM21.7886 28.8541V20.8784L18.686 22.3189C17.4168 22.9162 16.077 24.4622 16.077 25.973C16.077 28.1162 17.5226 29.8027 19.3912 29.8027C20.2373 29.8027 20.8014 29.7676 21.4008 29.2405L21.7886 28.8541Z" fill="#293223"/>
<path d="M43.2387 29.4162C43.2739 29.4514 43.2387 29.5216 43.1682 29.5568L41.6521 30.2946L41.6169 30.3297L38.5496 31.8405H38.479C38.479 31.8405 38.479 31.8405 38.4438 31.8405C38.4438 31.8054 38.4438 31.8054 38.4085 31.8054C38.4085 31.8054 38.4085 31.8054 38.4085 31.7703L38.3733 31.7351V30.9622C37.4213 31.5243 36.2931 31.8405 35.0944 31.8405C31.463 31.8405 28.5014 28.8892 28.5014 25.3054V16.4514C28.5014 15.6784 27.8668 15.0108 27.0559 15.0108C26.9854 15.0108 26.9501 14.9757 26.9501 14.9054C26.9501 14.8351 26.9854 14.7649 27.0559 14.7649H31.9566C31.9918 14.7649 32.0271 14.8 32.0623 14.8C32.0976 14.8351 32.0976 14.8703 32.0976 14.9054V25.3054C32.0976 28.7838 33.4373 31.5946 35.0944 31.5946C36.2931 31.5946 37.4213 31.2784 38.3733 30.6811V16.4514C38.3733 15.6784 37.7387 15.0108 36.9278 15.0108C36.8572 15.0108 36.822 14.9757 36.822 14.9054C36.822 14.8351 36.8572 14.7649 36.9278 14.7649H41.5464C41.6169 14.7649 41.6521 14.8351 41.6521 14.9054V28.9946C41.6521 29.2405 41.7579 29.4514 41.9342 29.5568C42.1105 29.6973 42.4278 29.6622 42.7451 29.5216C42.7451 29.4865 42.7451 29.4865 42.7804 29.4865L43.0624 29.3459C43.1329 29.3108 43.2034 29.3459 43.2387 29.4162Z" fill="#293223"/>
<path d="M66.2318 31.0324C66.2671 31.1027 66.2671 31.173 66.2318 31.2081C65.6677 31.7703 64.9273 32.0162 64.1869 32.0162C63.4465 32.0162 62.7061 31.7351 62.1068 31.173C61.6132 30.6459 61.2959 29.9432 61.2606 29.1703L61.0138 29.4162L59.251 31.0324C58.4753 31.6649 57.5234 32.0162 56.5362 32.0162C54.2093 32.0162 52.3054 30.0486 52.3054 27.6243C52.3054 25.8676 53.2926 24.2865 54.8439 23.5838L61.2606 20.6324V18.8757C61.2606 16.5568 60.0972 14.6946 58.6164 14.6946C57.9112 14.6946 57.2414 14.8 56.5715 15.0108C56.5715 15.0108 56.5715 15.0108 56.5362 15.0108C56.4657 15.0108 56.4305 14.9405 56.4305 14.8703V14.8351C56.4657 14.8351 56.4657 14.8 56.4657 14.8C56.4657 14.8 56.501 14.8 56.501 14.7649C56.501 14.7649 56.501 14.7649 56.5362 14.7649C57.2061 14.5541 57.9112 14.4486 58.6164 14.4486C61.86 14.4486 64.5042 16.6622 64.5042 19.4027V30.3297C64.5042 30.5757 64.61 30.8216 64.7863 30.9973C65.1389 31.3486 65.703 31.3838 66.0555 31.0324C66.126 30.9973 66.1965 30.9973 66.2318 31.0324ZM61.2606 28.8541V20.8784L58.158 22.3189C56.8888 22.9162 55.549 24.4622 55.549 25.973C55.549 28.1162 56.9946 29.8027 58.8632 29.8027C59.7093 29.8027 60.2382 29.7676 60.8375 29.2405L61.2606 28.8541ZM56.1132 16.6973C56.1132 17.9622 55.0907 18.9811 53.8567 18.9811C52.5875 18.9811 51.565 17.9622 51.565 16.6973C51.565 16.1351 51.5298 15.573 51.283 15.4324C51.1067 15.2919 50.8247 15.327 50.4368 15.5027C50.1195 15.6784 49.8022 15.8541 49.5202 16.0297V29.8027C49.5202 30.6108 50.19 31.2784 51.0009 31.2784C51.0715 31.2784 51.1067 31.3135 51.1067 31.3838C51.1067 31.4541 51.0715 31.5243 51.0009 31.5243H44.7958C44.7253 31.5243 44.69 31.4541 44.69 31.3838C44.69 31.3135 44.7253 31.2784 44.7958 31.2784C45.6067 31.2784 46.2413 30.6108 46.2413 29.8027V17.2946C46.2413 17.0135 46.1708 16.8378 45.9945 16.7324C45.783 16.5919 45.5009 16.627 45.1836 16.7676L45.1483 16.8027L44.831 16.9432H44.7958C44.7605 16.9432 44.69 16.9081 44.69 16.873C44.6547 16.8378 44.69 16.7676 44.7253 16.7324L46.2765 15.9595H46.3118L47.8984 15.1865L49.3439 14.4486C49.3791 14.4486 49.3791 14.4486 49.4144 14.4486H49.4849V14.4838C49.5202 14.4838 49.5202 14.4838 49.5202 14.5189C49.5202 14.5189 49.5202 14.5189 49.5202 14.5541V15.7486C49.8022 15.573 50.049 15.4324 50.3311 15.2919C51.4593 14.7297 52.6933 14.4486 53.8567 14.4486C55.0907 14.4486 56.1132 15.4676 56.1132 16.6973Z" fill="#293223"/>
<path d="M110.53 31.0324C110.565 31.1027 110.565 31.173 110.53 31.2081C109.966 31.7351 109.225 32.0162 108.485 32.0162C107.745 32.0162 106.969 31.7351 106.405 31.173C105.876 30.6459 105.594 29.9432 105.559 29.1703L105.312 29.4162L103.549 31.0324C102.773 31.6649 101.821 32.0162 100.834 32.0162C98.5073 32.0162 96.6035 30.0486 96.6035 27.6243C96.6035 25.8676 97.5907 24.2865 99.1067 23.5838L102.35 22.1081L105.559 20.6324V18.8757C105.559 16.5568 104.36 14.6946 102.914 14.6946C102.209 14.6946 101.539 14.8 100.87 15.0108C100.87 15.0108 100.87 15.0108 100.834 15.0108C100.764 15.0108 100.729 14.9405 100.729 14.8703V14.8351C100.729 14.8 100.729 14.8 100.764 14.8C100.764 14.8 100.764 14.8 100.799 14.7649C101.469 14.5541 102.174 14.4486 102.914 14.4486C106.158 14.4486 108.802 16.6622 108.802 19.4027V30.3297C108.802 30.5757 108.908 30.8216 109.084 30.9973C109.437 31.3486 110.001 31.3838 110.354 31.0324C110.424 30.9973 110.495 30.9973 110.53 31.0324ZM105.559 28.8541V20.8784L102.456 22.3189C101.187 22.9162 99.8118 24.4622 99.8118 25.973C99.8118 28.1162 101.293 29.8027 103.161 29.8027C104.007 29.8027 104.536 29.7676 105.136 29.2405L105.559 28.8541ZM91.0329 27.2027C94.4528 27.2027 97.2028 29.9432 97.2028 33.3513C97.2028 34.9676 96.5682 36.4784 95.44 37.6378C94.3118 38.7973 92.7958 39.4649 91.2092 39.5C91.1387 39.5 91.1034 39.5 91.0329 39.5C90.6098 39.5 90.1868 39.4649 89.7989 39.3946C88.1771 39.1486 86.7316 38.3757 85.5681 37.2514C85.1451 36.7946 84.8983 36.2324 84.8983 35.6351C84.8983 35.0378 85.1451 34.4405 85.5681 34.0189C85.9912 33.5973 86.5553 33.3513 87.1547 33.3513C87.7893 33.3513 88.3534 33.5973 88.7765 34.0189C89.6579 34.8973 89.6579 36.3378 88.7765 37.2514C88.3182 37.7081 88.1066 38.0595 88.2124 38.3405C88.3182 38.6919 88.847 38.9378 89.8342 39.1486C90.222 39.2189 90.6098 39.2541 91.0329 39.2541C91.0682 39.2541 91.1387 39.2541 91.174 39.2541C93.5361 39.1838 95.3695 37.2865 95.3695 34.9324C95.3695 32.5432 93.4304 30.6108 91.0329 30.6108C90.3631 30.6108 89.7284 30.7865 89.1291 31.0676L85.2508 32.9649C84.7572 33.1757 84.2284 33.2811 83.6995 33.2811C81.6547 33.2811 79.9976 31.6297 79.9976 29.5919C79.9976 27.5541 81.5842 25.9378 83.5938 25.8676C83.629 25.8676 83.6643 25.8676 83.6995 25.8676H86.0265C83.3822 25.1297 81.4431 22.9162 81.4431 20.2459C81.4431 17.0486 84.2989 14.4135 87.8598 14.4135C89.4816 14.4135 90.9624 14.9757 92.0906 15.8892C93.0778 14.6946 94.5938 13.9216 96.2509 13.9216C97.4144 13.9216 98.5073 14.3081 99.4593 15.0459H99.4945C99.4945 15.0811 99.5298 15.0811 99.565 15.1162C99.565 15.1514 99.6003 15.1514 99.6355 15.1865C99.6708 15.2216 99.7061 15.2568 99.7413 15.2919L99.8471 15.3622C99.8823 15.3973 99.9176 15.4324 99.9529 15.4676C100.975 16.5216 101.575 17.9622 101.575 19.4027C101.575 20.0351 101.363 20.5973 100.94 21.0189C100.482 21.4405 99.9176 21.6865 99.3182 21.6865C98.7189 21.6865 98.1195 21.4405 97.6964 21.0189C97.2734 20.5973 97.0266 20.0351 97.0266 19.4027C97.0266 19.3676 97.0266 19.3324 97.0266 19.2973C97.0618 18.7351 97.3086 18.2081 97.6964 17.8216C98.1195 17.3649 98.7189 17.1541 99.3182 17.1541C99.6356 17.1541 100.059 17.0135 100.2 16.6973C100.305 16.4162 100.164 16.0649 99.7766 15.6432C99.7413 15.6081 99.7061 15.573 99.6708 15.5378L99.6003 15.4676C99.565 15.4324 99.5298 15.3973 99.4945 15.3622L99.3887 15.2919C99.3887 15.2919 99.3535 15.2568 99.3182 15.2568V15.2216C98.4016 14.5189 97.3439 14.1324 96.2509 14.1324C94.6644 14.1324 93.2188 14.8703 92.3022 16.0297C93.5009 17.1189 94.2765 18.5946 94.2765 20.2459C94.2765 23.4784 91.3855 26.1135 87.8598 26.1135C87.8246 26.1135 87.7893 26.1135 87.7541 26.1135H83.6995C83.6643 26.1135 83.629 26.1135 83.5938 26.1135C82.6066 26.1486 81.8309 26.9919 81.8309 27.9757C81.8309 28.9946 82.6771 29.8378 83.6995 29.8378C83.9816 29.8378 84.2636 29.8027 84.5104 29.6622L88.2477 27.8703C89.0938 27.4486 90.0457 27.2027 91.0329 27.2027ZM85.1098 20.2459C85.1098 23.3378 86.3438 25.8676 87.8598 25.8676C89.3759 25.8676 90.5746 23.3378 90.5746 20.2459C90.5746 17.1541 89.3759 14.6595 87.8598 14.6595C86.3438 14.6595 85.1098 17.1541 85.1098 20.2459Z" fill="#293223"/>
<path d="M121.158 14.4486C122.392 14.4486 123.415 15.4676 123.415 16.6973C123.415 17.9622 122.392 18.9811 121.158 18.9811C119.889 18.9811 118.867 17.9622 118.867 16.6973C118.867 16.1351 118.831 15.573 118.585 15.3973C118.408 15.2919 118.126 15.327 117.738 15.5027C117.421 15.6784 117.104 15.8541 116.822 16.0297V29.8027C116.822 30.6108 117.492 31.2784 118.303 31.2784C118.373 31.2784 118.408 31.3135 118.408 31.3838C118.408 31.4541 118.373 31.5243 118.303 31.5243H112.097C112.027 31.5243 111.992 31.4541 111.992 31.3838C111.992 31.3135 112.027 31.2784 112.097 31.2784C112.908 31.2784 113.543 30.6108 113.543 29.8027V17.2946C113.543 17.0135 113.472 16.8378 113.296 16.7324C113.085 16.5919 112.803 16.627 112.485 16.7676C112.485 16.7676 112.45 16.7676 112.45 16.8027L112.133 16.9432H112.097C112.062 16.9432 111.992 16.9081 111.992 16.873C111.956 16.8378 111.992 16.7324 112.027 16.7324L113.578 15.9595H113.613L116.646 14.4486C116.681 14.4486 116.681 14.4486 116.716 14.4486H116.787V14.4838C116.822 14.4838 116.822 14.4838 116.822 14.5189C116.822 14.5189 116.822 14.5189 116.822 14.5541V15.7486C117.104 15.573 117.351 15.4324 117.633 15.2919C118.761 14.7297 119.995 14.4486 121.158 14.4486Z" fill="#293223"/>
<path d="M147.337 31.2784C147.407 31.2784 147.478 31.3135 147.478 31.3838C147.478 31.4541 147.407 31.5243 147.337 31.5243H141.167C141.097 31.5243 141.026 31.4541 141.026 31.3838C141.026 31.3135 141.097 31.2784 141.167 31.2784C141.943 31.2784 142.613 30.6108 142.613 29.8027V17.2946C142.613 17.0135 142.507 16.8378 142.366 16.7324C142.154 16.5919 141.872 16.627 141.555 16.7676C141.52 16.7676 141.52 16.8027 141.52 16.8027L141.202 16.9432H141.167C141.097 16.9432 141.061 16.9081 141.026 16.873C141.026 16.8378 141.026 16.7676 141.097 16.7324L142.613 15.9595H142.683L145.715 14.4486H145.75C145.786 14.4486 145.786 14.4486 145.821 14.4486H145.856V14.4838C145.856 14.4838 145.856 14.4838 145.891 14.5189C145.891 14.5189 145.891 14.5189 145.891 14.5541V29.8027C145.891 30.6108 146.526 31.2784 147.337 31.2784ZM139.933 3.48649C136.407 3.48649 133.587 6.33243 133.552 9.84594C133.552 12.0946 134.786 14.1676 136.725 15.327C137.641 15.7838 138.452 16.4162 139.157 17.1892C139.581 17.6459 139.827 18.2081 139.827 18.8054C139.827 19.4027 139.581 19.9649 139.157 20.4216C138.699 20.8432 138.135 21.0541 137.536 21.0541C136.972 21.0541 136.372 20.8432 135.949 20.4216C135.032 19.5081 135.032 18.0676 135.949 17.1892C136.302 16.8027 136.478 16.4162 136.337 16.0297C136.196 15.5027 135.561 15.0459 134.645 14.8351C134.151 14.7297 133.622 14.6946 133.093 14.6946C130.555 14.6946 128.475 18.5243 128.475 23.2324C128.475 27.9405 130.555 31.7703 133.093 31.7703C133.093 31.7703 133.093 31.7703 133.129 31.7703C135.42 31.9108 137.571 31.1027 139.157 29.5216C139.228 29.4865 139.298 29.4865 139.334 29.5216C139.404 29.5919 139.404 29.6622 139.334 29.6973C137.818 31.2081 135.808 32.0162 133.622 32.0162C133.446 32.0162 133.27 32.0162 133.093 32.0162C128.51 32.0162 124.808 28.0811 124.808 23.2324C124.808 18.3838 128.51 14.4486 133.093 14.4486C133.657 14.4486 134.186 14.4838 134.715 14.5892C135.032 14.6595 135.35 14.7649 135.667 14.8703C134.186 13.6405 133.34 11.8135 133.34 9.84594C133.34 6.22703 136.302 3.27568 139.933 3.27568C141.766 3.27568 143.529 4.04865 144.763 5.38378C145.891 6.61351 146.526 8.19459 146.526 9.84594C146.526 11.0757 145.504 12.0946 144.234 12.0946C143 12.0946 141.978 11.0757 141.978 9.84594C141.978 8.58108 143 7.56216 144.234 7.56216C144.763 7.56216 145.151 7.38649 145.257 7.14054C145.398 6.85946 145.363 6.4027 144.587 5.55946C143.388 4.25946 141.696 3.48649 139.933 3.48649Z" fill="#293223"/>
<path d="M162.947 30.9973C163.018 31.0324 163.018 31.1378 162.947 31.173C162.947 31.173 162.947 31.2081 162.912 31.2081C162.348 31.7351 161.607 32.0162 160.867 32.0162C160.127 32.0162 159.386 31.7351 158.822 31.173C158.293 30.6459 157.976 29.9432 157.941 29.1703L157.694 29.4162L155.931 30.9973C155.191 31.6649 154.203 32.0162 153.252 32.0162C150.889 32.0162 149.021 30.0486 149.021 27.6243C149.021 25.8676 149.973 24.2865 151.524 23.5838L154.732 22.1081L157.941 20.5973V18.8757C157.941 16.5568 156.777 14.6595 155.296 14.6595C154.591 14.6595 153.921 14.8 153.252 15.0108C152.617 15.2568 152.229 15.5378 152.159 15.9243C152.053 16.4865 152.652 17.1541 153.322 17.8216C153.745 18.2432 153.992 18.8054 153.992 19.4027C153.992 20 153.745 20.5973 153.322 21.0189C152.899 21.4405 152.3 21.6865 151.7 21.6865C151.101 21.6865 150.537 21.4405 150.078 21.0189C149.655 20.5973 149.444 20 149.444 19.4027C149.444 19.3676 149.444 19.3324 149.444 19.2973C149.479 17.2595 150.96 15.5027 153.181 14.7649C153.216 14.7649 153.216 14.7649 153.216 14.7649C153.886 14.5541 154.591 14.4486 155.296 14.4486C158.54 14.4486 161.184 16.6622 161.184 19.4027V30.3297C161.184 30.5757 161.29 30.8216 161.466 30.9973C161.819 31.3486 162.383 31.3486 162.771 31.0324C162.771 31.0324 162.771 30.9973 162.806 30.9973C162.841 30.9622 162.912 30.9622 162.947 30.9973ZM157.941 28.8541V20.8784L154.838 22.3189C153.569 22.9162 152.229 24.4622 152.229 25.973C152.229 28.1162 153.675 29.8027 155.543 29.8027C156.389 29.8027 156.918 29.7676 157.518 29.2405H157.553L157.941 28.8541Z" fill="#293223"/>
</svg>
